# Made in Blockbench 4.12.6
mtllib DoorObj.mtl

o cuboid
v 0.5625 1.375 0.0625
v 0.5625 1.375 -0.0625
v 0.5625 0.125 0.0625
v 0.5625 0.125 -0.0625
v -0.25 1.375 0.0625
v -0.25 1.375 -0.0625
v -0.6875 0.125 0.0625
v -0.6875 0.125 -0.0625
v 0.625 0.25 0.0625
v -0.6875 0.25 0.0625
v 0.625 0.5 0.0625
v -0.625 0.5 0.0625
v 0.625 0.75 0.0625
v -0.625 0.75 0.0625
v 0.625 1 0.0625
v -0.5 1 0.0625
v 0.625 1.25 0.0625
v -0.5 1.25 0.0625
v -0.6875 0.25 -0.0625
v -0.625 0.5 -0.0625
v -0.625 0.75 -0.0625
v -0.5 1 -0.0625
v -0.5 1.25 -0.0625
v 0.625 0.25 -0.0625
v 0.625 0.5 -0.0625
v 0.625 0.75 -0.0625
v 0.625 1 -0.0625
v 0.625 1.25 -0.0625
vt 0.38259453125 0.953125
vt 0.31271796875 0.953125
vt 0.31271796875 0.921875
vt 0.38259453125 0.921875
vt 0.38259453125 0.921875
vt 0.58571953125 0.921875
vt 0.58571953125 0.953125
vt 0.38259453125 0.953125
vt 0 0.671875
vt 0 0.6369359375
vt 0.03125 0.6369359375
vt 0.03125 0.671875
vt 0.625 0.96875
vt 0.625 1
vt 0.3125 1
vt 0.3125 0.96875
vt 0.078125 0.3813249999999999
vt 0.078125 0.4125749999999999
vt 0.046875 0.4125749999999999
vt 0.046875 0.3813249999999999
vt 0.078125 0.4125749999999999
vt 0.078125 0.47699843750000004
vt 0.046875 0.47699843750000004
vt 0.046875 0.4125749999999999
vt 0.078125 0.47699843750000004
vt 0.078125 0.5394984375
vt 0.046875 0.5394984375
vt 0.046875 0.47699843750000004
vt 0.078125 0.5394984375
vt 0.078125 0.609375
vt 0.046875 0.609375
vt 0.046875 0.5394984375
vt 0.078125 0.609375
vt 0.078125 0.671875
vt 0.046875 0.671875
vt 0.046875 0.609375
vt 0.03125 0.35199843750000004
vt 0.03125 0.3869359375
vt 0 0.3869359375
vt 0 0.35199843750000004
vt 0.03125 0.3869359375
vt 0.03125 0.4494359375
vt 0 0.4494359375
vt 0 0.3869359375
vt 0.03125 0.4494359375
vt 0.03125 0.5119359375
vt 0 0.5119359375
vt 0 0.4494359375
vt 0.03125 0.5119359375
vt 0.03125 0.5744359375
vt 0 0.5744359375
vt 0 0.5119359375
vt 0.03125 0.5744359375
vt 0.03125 0.6369359375
vt 0 0.6369359375
vt 0 0.5744359375
vt 0.015625 1
vt 0 0.96875
vt 0.28125 0.96875
vt 0.21875 1
vt 0.28125 0.90625
vt 0.28125 0.96875
vt 0 0.96875
vt 0 0.90625
vt 0.3125 0.84375
vt 0.28125 0.90625
vt 0 0.90625
vt 0 0.84375
vt 0.3125 0.78125
vt 0.3125 0.84375
vt 0 0.84375
vt 0 0.78125
vt 0.328125 0.71875
vt 0.3125 0.78125
vt 0 0.78125
vt 0 0.71875
vt 0.328125 0.6875
vt 0.328125 0.71875
vt 0 0.71875
vt 0.015625 0.6875
vt 0.609375 0.453125
vt 0.625 0.484375
vt 0.296875 0.484375
vt 0.296875 0.453125
vt 0.625 0.484375
vt 0.625 0.546875
vt 0.3125 0.546875
vt 0.296875 0.484375
vt 0.625 0.546875
vt 0.625 0.609375
vt 0.3125 0.609375
vt 0.3125 0.546875
vt 0.625 0.609375
vt 0.625 0.671875
vt 0.34375 0.671875
vt 0.3125 0.609375
vt 0.625 0.671875
vt 0.625 0.734375
vt 0.34375 0.734375
vt 0.34375 0.671875
vt 0.40625 0.765625
vt 0.34375 0.734375
vt 0.625 0.734375
vt 0.609375 0.765625
vn -0.44721359549995804 0.8944271909999161 0
vn 0 1 0
vn 0.8944271909999161 0.44721359549995804 0
vn 0 -1 0
vn -1 0 0
vn -0.9701425001453319 0.24253562503633297 0
vn -1 0 0
vn -0.8944271909999161 0.44721359549995804 0
vn -1 0 0
vn 0.8944271909999161 -0.44721359549995804 0
vn 1 0 0
vn 1 0 0
vn 1 0 0
vn 1 0 0
vn 0 0 -1
vn 0 0 -1
vn 0 0 -1
vn 0 0 -1
vn 0 0 -1
vn 0 0 -1
vn 0 0 1
vn 0 0 1
vn 0 0 1
vn 0 0 1
vn 0 0 1
vn 0 0 1
usemtl m_e269eff9-a028-2129-fa23-1e83474e74e1
f 6/1/1 23/2/1 18/3/1 5/4/1
f 5/5/2 1/6/2 2/7/2 6/8/2
f 1/9/3 17/10/3 28/11/3 2/12/3
f 4/13/4 3/14/4 7/15/4 8/16/4
f 7/17/5 10/18/5 19/19/5 8/20/5
f 10/21/6 12/22/6 20/23/6 19/24/6
f 12/25/7 14/26/7 21/27/7 20/28/7
f 14/29/8 16/30/8 22/31/8 21/32/8
f 16/33/9 18/34/9 23/35/9 22/36/9
f 4/37/10 24/38/10 9/39/10 3/40/10
f 24/41/11 25/42/11 11/43/11 9/44/11
f 25/45/12 26/46/12 13/47/12 11/48/12
f 26/49/13 27/50/13 15/51/13 13/52/13
f 27/53/14 28/54/14 17/55/14 15/56/14
f 2/57/15 28/58/15 23/59/15 6/60/15
f 22/61/16 23/62/16 28/63/16 27/64/16
f 21/65/17 22/66/17 27/67/17 26/68/17
f 20/69/18 21/70/18 26/71/18 25/72/18
f 19/73/19 20/74/19 25/75/19 24/76/19
f 8/77/20 19/78/20 24/79/20 4/80/20
f 3/81/21 9/82/21 10/83/21 7/84/21
f 9/85/22 11/86/22 12/87/22 10/88/22
f 11/89/23 13/90/23 14/91/23 12/92/23
f 13/93/24 15/94/24 16/95/24 14/96/24
f 15/97/25 17/98/25 18/99/25 16/100/25
f 5/101/26 18/102/26 17/103/26 1/104/26